<?xml version="1.0" standalone="no"?>
<!DOCTYPE svg PUBLIC "-//W3C//DTD SVG 20010904//EN"
 "http://www.w3.org/TR/2001/REC-SVG-20010904/DTD/svg10.dtd">
<svg version="1.0" xmlns="http://www.w3.org/2000/svg"
 width="250.000000pt" height="75.000000pt" viewBox="0 0 250.000000 75.000000"
 preserveAspectRatio="xMidYMid meet">
<metadata>
Created by potrace 1.15, written by Peter Selinger 2001-2017
</metadata>
<g transform="translate(0.000000,75.000000) scale(0.100000,-0.100000)"
fill="#000000" stroke="none">
<path d="M70 375 l0 -215 45 0 45 0 0 90 0 90 90 0 90 0 0 40 0 40 -90 0 -90
0 0 45 0 45 105 0 105 0 0 40 0 40 -150 0 -150 0 0 -215z"/>
<path d="M450 375 l0 -215 50 0 50 0 0 215 0 215 -50 0 -50 0 0 -215z"/>
<path d="M670 375 l0 -215 50 0 50 0 0 143 c1 112 3 138 12 122 7 -11 17 -25
23 -31 6 -6 37 -47 70 -90 106 -139 112 -144 167 -144 l48 0 0 215 0 215 -50
0 -49 0 -3 -136 -3 -136 -32 43 c-17 24 -43 57 -57 73 -14 16 -26 32 -26 35 0
3 -13 20 -28 36 -16 17 -36 42 -46 58 -16 24 -24 27 -72 27 l-54 0 0 -215z"/>
<path d="M1210 375 l0 -215 165 0 165 0 0 40 0 40 -115 0 -115 0 0 50 0 50 90
0 90 0 0 40 0 40 -90 0 -90 0 0 45 0 45 105 0 105 0 0 40 0 40 -155 0 -155 0
0 -215z"/>
<path d="M1655 549 c-85 -79 -87 -166 -5 -324 55 -107 60 -146 23 -187 -17
-19 -16 -19 47 -16 64 3 65 3 84 41 16 34 17 43 5 85 -12 44 -71 165 -90 187
-5 5 -9 38 -9 73 0 51 5 70 25 100 l25 36 -22 23 c-12 13 -25 23 -30 23 -5 0
-28 -18 -53 -41z"/>
<path d="M2110 375 l0 -215 160 0 160 0 0 40 0 40 -110 0 -110 0 0 50 0 50 90
0 90 0 0 40 0 40 -90 0 -90 0 0 45 0 44 108 3 107 3 3 38 3 37 -160 0 -161 0
0 -215z"/>
</g>
</svg>
